<?xml version="1.0" encoding="UTF-8"?>
<!-- Generator: visioncortex VTracer 0.6.3 -->
<svg version="1.1" xmlns="http://www.w3.org/2000/svg" width="1280" height="1280">
<path d="M0 0 C24.09 0 48.18 0 73 0 C73 0.99 73 1.98 73 3 C73.87 3.01 74.73 3.02 75.62 3.03 C78.91 3.07 82.19 3.13 85.48 3.21 C86.88 3.24 88.29 3.26 89.7 3.27 C98.64 3.37 106.32 4.34 114.93 7.07 C118.81 8.25 122.4 8.7 126.44 9.06 C131.95 9.56 135.94 10.82 141 13 C143.81 13.66 146.64 14.09 149.5 14.5 C155.16 15.32 159.72 16.69 165 19 C168.04 19.61 171.06 19.99 174.13 20.38 C177.28 21.06 179.26 22.34 182 24 C184.71 24.67 184.71 24.67 187.5 25 C190.64 25.42 192.71 25.82 195.44 27.47 C198.45 29.27 201.07 29.83 204.5 30.5 C209.01 31.38 212.11 32.59 216 35 C218.25 35.66 218.25 35.66 220.5 36 C224.27 36.75 226.71 38 230 40 C232.58 40.83 235.17 41.56 237.79 42.25 C240 43 240 43 242 45 C244.73 45.83 247.49 46.47 250.27 47.12 C253.08 48.03 254.69 49.22 257 51 C258.98 51.66 258.98 51.66 261 52 C264.41 52.76 266.21 53.88 269 56 C271.3 56.84 273.62 57.56 275.98 58.25 C278 59 278 59 280 61 C281.48 61.58 282.98 62.09 284.5 62.56 C286.77 63.28 288.87 63.93 291 65 C291 65.66 291 66.32 291 67 C291.7 67.13 292.4 67.27 293.12 67.4 C294.03 67.58 294.94 67.76 295.88 67.94 C296.78 68.11 297.68 68.29 298.62 68.46 C301 69 301 69 303 70 C303 70.66 303 71.32 303 72 C303.68 72.18 304.35 72.36 305.05 72.55 C305.94 72.8 306.83 73.05 307.75 73.31 C308.63 73.56 309.51 73.8 310.42 74.05 C313.08 75.03 314.79 76.26 317 78 C318.89 78.96 318.89 78.96 320.75 79.69 C321.82 80.12 322.89 80.55 324 81 C324 81.66 324 82.32 324 83 C324.61 83.11 325.23 83.22 325.86 83.33 C326.67 83.49 327.48 83.65 328.31 83.81 C329.51 84.04 329.51 84.04 330.74 84.27 C333.29 85.09 334.15 86.12 336 88 C338.32 88.88 340.65 89.51 343.04 90.16 C343.69 90.43 344.33 90.71 345 91 C345.33 91.99 345.66 92.98 346 94 C348.32 94.7 350.66 95.36 353 96 C354.37 96.95 355.7 97.95 357 99 C359.82 100.48 362.68 101.85 365.57 103.2 C366.48 103.63 367.38 104.06 368.31 104.5 C369.17 104.9 370.04 105.3 370.93 105.72 C373 107 373 107 374 110 C375.05 110.08 376.1 110.17 377.19 110.25 C381.39 111.08 382.84 112.24 386 115 C387.99 116.02 389.99 117.02 392 118 C393.35 118.98 394.68 119.98 396 121 C400.55 123.86 405.29 126.41 410 129 C410 129.66 410 130.32 410 131 C411.22 131.25 412.43 131.5 413.69 131.75 C417.62 132.72 419.95 134.29 423 137 C423.74 137.37 424.49 137.74 425.25 138.12 C427 139 427 139 428 141 C429.11 141.47 430.23 141.95 431.38 142.44 C434.62 143.84 435.7 144.6 438 147 C438.83 147.33 439.65 147.66 440.5 148 C443.12 149.05 444.05 150.05 446 152 C446.99 152.5 447.98 152.99 449 153.5 C451.71 154.86 452.97 155.88 455 158 C455.89 158.52 456.77 159.03 457.69 159.56 C458.45 160.04 459.21 160.51 460 161 C460 161.66 460 162.32 460 163 C460.76 163.12 461.53 163.25 462.31 163.38 C465 164 465 164 468 166 C468 166.66 468 167.32 468 168 C468.95 168.25 469.9 168.5 470.88 168.75 C474.48 170.19 474.42 170.74 476 174 C477.1 174.2 477.1 174.2 478.23 174.41 C481.55 175.12 483.5 176.46 486.25 178.44 C487.12 179.05 487.99 179.67 488.89 180.31 C491 182 491 182 492 184 C492.83 184.39 493.65 184.78 494.5 185.19 C498.37 187.19 501.49 189.64 504.88 192.36 C507.07 194.12 507.07 194.12 509.94 195.75 C512 197 512 197 514 200 C515.65 201.03 517.32 202.02 519 203 C521.54 204.97 524.02 207.01 526.5 209.06 C528.97 211.06 528.97 211.06 531.75 212.62 C534 214 534 214 535 216 C536.15 216.47 537.31 216.95 538.5 217.44 C540.23 218.21 540.23 218.21 542 219 C542.33 219.99 542.66 220.98 543 222 C544.66 222.67 546.33 223.34 548 224 C550.06 225.88 550.06 225.88 552 228 C554.03 230.16 555.77 231.86 558.32 233.38 C561.03 235.02 563.42 236.82 565.88 238.81 C566.74 239.51 567.61 240.22 568.5 240.94 C571.21 243.17 573.88 245.45 576.53 247.75 C577.78 248.81 579.1 249.79 580.44 250.75 C580.95 251.16 581.47 251.57 582 252 C582 252.66 582 253.32 582 254 C582.8 254.27 583.61 254.54 584.44 254.81 C585.28 255.2 586.13 255.6 587 256 C587.33 256.99 587.66 257.98 588 259 C589.65 259.71 591.32 260.37 593 261 C598.08 264.45 602.92 268.4 607 273 C607 273.66 607 274.32 607 275 C607.76 275.25 608.53 275.5 609.31 275.75 C612.28 277.13 613.15 278.39 615 281 C615.99 281.33 616.98 281.66 618 282 C618.19 282.96 618.19 282.96 618.38 283.94 C618.58 284.62 618.79 285.3 619 286 C620.65 286.7 622.32 287.37 624 288 C624.33 288.99 624.66 289.98 625 291 C626.66 291.68 628.33 292.34 630 293 C632.39 294.92 632.39 294.92 634.81 297.19 C635.68 297.99 636.55 298.8 637.45 299.63 C638.29 300.41 639.13 301.19 640 302 C641.37 303.21 642.74 304.42 644.12 305.62 C645.08 306.46 645.08 306.46 646.06 307.32 C647.39 308.47 648.72 309.61 650.06 310.74 C653.98 314.08 657.41 317.45 660.58 321.52 C662.22 323.22 663.9 323.95 666 325 C666.14 325.66 666.29 326.32 666.44 327 C666.62 327.66 666.81 328.32 667 329 C667.83 329.33 668.65 329.66 669.5 330 C670.33 330.33 671.15 330.66 672 331 C672.81 333.12 672.81 333.12 673 335 C674.32 335.33 675.64 335.66 677 336 C677.33 337.32 677.66 338.64 678 340 C679.32 340.33 680.64 340.66 682 341 C682.09 341.93 682.09 341.93 682.19 342.88 C682.46 343.58 682.72 344.28 683 345 C684.66 345.69 686.33 346.35 688 347 C690.5 349.31 690.5 349.31 693 352 C693.83 352.82 694.65 353.65 695.5 354.5 C715 374 715 374 715 377 C715.8 377.27 716.61 377.54 717.44 377.81 C718.28 378.2 719.13 378.6 720 379 C720.33 379.99 720.66 380.98 721 382 C722.62 383.71 724.3 385.37 726 387 C726.83 387.85 727.65 388.69 728.5 389.56 C730.88 392 730.88 392 733.38 393.75 C736.54 396.46 738.81 399.52 741.31 402.83 C743.35 405.44 745.63 407.69 748 410 C749.12 411.22 750.22 412.45 751.31 413.69 C751.82 414.27 752.34 414.85 752.86 415.45 C754 417 754 417 754 419 C754.84 419.31 754.84 419.31 755.69 419.62 C758.84 421.5 760.77 424.16 763 427 C766.28 430.97 766.28 430.97 769.65 434.86 C770.2 435.49 770.75 436.11 771.31 436.75 C772.08 437.61 772.08 437.61 772.86 438.48 C774 440 774 440 774 442 C774.59 442.24 775.18 442.48 775.79 442.73 C778.41 444.23 779.65 445.82 781.44 448.25 C783.52 451.05 785.62 453.76 787.94 456.38 C790 459 790 459 790 462 C790.54 462.2 791.09 462.4 791.65 462.61 C794.96 464.57 797.18 467.33 799.62 470.25 C800.11 470.81 800.6 471.37 801.11 471.95 C804.11 475.5 805.66 478.49 807 483 C808.97 484.15 808.97 484.15 811 485 C812.06 486.94 812.06 486.94 813 489 C813.98 490.02 814.98 491.02 816 492 C817.7 493.98 819.36 495.97 821 498 C821.53 498.66 822.07 499.31 822.62 499.99 C825.57 503.75 827.16 506.25 828 511 C829.32 511.68 830.66 512.35 832 513 C834.06 515.81 834.06 515.81 836 519 C836.58 519.91 837.15 520.82 837.75 521.75 C839 524 839 524 839 526 C839.64 526.23 840.28 526.45 840.94 526.69 C843 528 843 528 843.75 530.62 C843.83 531.41 843.91 532.19 844 533 C844.99 533.33 845.98 533.66 847 534 C848.28 535.64 848.28 535.64 849.5 537.69 C850.15 538.77 850.15 538.77 850.81 539.87 C851.79 541.63 852.69 543.43 853.56 545.25 C854.85 548.05 854.85 548.05 857 550 C859.43 552.43 860.55 554.9 862 558 C862.84 559.36 862.84 559.36 863.69 560.75 C865 563 865 563 865 565 C865.99 565.33 866.98 565.66 868 566 C869.06 567.71 869.06 567.71 870 569.81 C871.42 572.85 872.96 575.33 875 578 C876.02 579.99 877.02 581.99 878 584 C879.36 586.35 880.77 588.65 882.27 590.91 C884.65 594.58 886.58 597.54 887 602 C887.99 602.33 888.98 602.66 890 603 C890.71 605.31 891.01 607.58 891.38 609.97 C891.68 610.97 891.68 610.97 892 612 C892.99 612.33 893.98 612.66 895 613 C896.06 614.89 896.06 614.89 897 617.25 C898.44 620.71 900.02 623.82 902 627 C908 638.5 908 638.5 908 644 C908.99 644.33 909.98 644.66 911 645 C912.52 648.6 913 651.05 913 655 C913.99 655.33 914.98 655.66 916 656 C916.84 658.14 916.84 658.14 917.5 660.81 C918.2 663.65 918.73 665.64 920.5 667.98 C922.83 671.11 923.29 674.59 924.16 678.34 C924.84 681.03 924.84 681.03 926.53 683 C928.84 686.15 928.87 689.54 929.38 693.34 C929.81 696.03 929.81 696.03 931.47 697.89 C933.63 700.87 933.89 703.7 934.5 707.31 C935.19 711.36 935.9 714.78 937.55 718.55 C939.08 722.19 939.49 725.01 939.69 728.94 C939.75 730.08 939.82 731.22 939.89 732.4 C939.94 733.69 939.94 733.69 940 735 C940.99 735 941.98 735 943 735 C943 768.66 943 802.32 943 837 C942.01 837 941.02 837 940 837 C939.95 837.81 939.9 838.62 939.85 839.45 C939.74 841.05 939.74 841.05 939.62 842.69 C939.56 843.74 939.49 844.8 939.41 845.89 C939.01 848.91 938.26 851.24 937 854 C936.34 854 935.68 854 935 854 C934.9 854.64 934.8 855.28 934.7 855.94 C933.68 861.84 932.17 865.95 929 871 C928.47 872.33 928.47 872.33 927.94 873.69 C927 876 927 876 925.56 877.88 C923.46 880.74 922.33 883.71 921 887 C920.34 887 919.68 887 919 887 C918.82 887.61 918.64 888.23 918.45 888.86 C918.2 889.67 917.95 890.48 917.69 891.31 C917.44 892.11 917.2 892.91 916.95 893.74 C915.94 896.13 914.89 897.26 913 899 C912.48 899.89 911.97 900.77 911.44 901.69 C910.96 902.45 910.49 903.21 910 904 C909.34 904 908.68 904 908 904 C907.94 904.7 907.88 905.4 907.81 906.12 C906.73 909.95 904.63 912.06 902 915 C901.44 915.78 900.89 916.57 900.31 917.38 C899.66 918.18 899.66 918.18 899 919 C898.34 919 897.68 919 897 919 C896.6 920.21 896.6 920.21 896.19 921.44 C895.6 922.71 895.6 922.71 895 924 C894.01 924.33 893.02 924.66 892 925 C891.66 926.33 891.33 927.66 891 929 C887.2 934.46 882.76 939.37 878 944 C876.76 945.49 876.76 945.49 875.5 947 C873.13 949.85 870.65 952.42 868 955 C867.28 955.74 866.56 956.49 865.81 957.25 C862.4 960.58 858.86 963.74 855.3 966.91 C853.99 968.1 852.69 969.31 851.44 970.56 C849.74 972.26 847.95 973.81 846.12 975.38 C843.82 977.37 841.67 979.35 839.56 981.56 C836.61 984.37 833.44 986.42 829.99 988.57 C827.74 990.01 827.74 990.01 826 993 C824 994 824 994 822 995 C820.64 996.31 819.31 997.65 818 999 C816.8 1000.1 815.59 1001.18 814.38 1002.25 C813.49 1003.03 813.49 1003.03 812.59 1003.83 C811 1005 811 1005 809 1005 C808.67 1005.99 808.34 1006.98 808 1008 C805.4 1009.65 804.14 1010 801 1010 C800.94 1010.62 800.88 1011.24 800.81 1011.88 C800.54 1012.58 800.28 1013.28 800 1014 C798.35 1014.71 796.68 1015.37 795 1016 C794.42 1016.58 793.85 1017.15 793.25 1017.75 C789.93 1021.07 786.11 1023.73 782 1026 C781.01 1026 780.02 1026 779 1026 C778.79 1026.58 778.59 1027.15 778.38 1027.75 C775.49 1032.47 769.9 1034.77 765 1037 C764.34 1037 763.68 1037 763 1037 C762.77 1037.64 762.55 1038.28 762.31 1038.94 C761 1041 761 1041 758.38 1041.75 C757.2 1041.87 757.2 1041.87 756 1042 C755.67 1042.99 755.34 1043.98 755 1045 C753.26 1046.06 753.26 1046.06 751.12 1047 C748.82 1048.02 747.21 1048.79 745.43 1050.6 C744 1052 744 1052 740.94 1052.44 C739.97 1052.62 739 1052.81 738 1053 C736.91 1054.93 736.91 1054.93 736 1057 C734.35 1057.72 732.69 1058.38 731 1059 C730.55 1059.47 730.09 1059.95 729.62 1060.44 C727.16 1062.8 724.12 1063.68 721 1065 C720.32 1065.54 719.64 1066.07 718.94 1066.62 C717 1068 717 1068 713.88 1068.44 C712.93 1068.62 711.98 1068.81 711 1069 C710.32 1070.32 709.65 1071.66 709 1073 C707.02 1073.72 705.02 1074.38 703 1075 C702.53 1075.47 702.05 1075.95 701.56 1076.44 C699.16 1078.84 696.11 1079.69 693 1081 C692.32 1081.54 691.64 1082.07 690.94 1082.62 C688.38 1084.44 686.07 1084.65 683 1085 C682.67 1085.99 682.34 1086.98 682 1088 C678.68 1089.71 676.82 1090 673 1090 C672.76 1090.62 672.51 1091.23 672.26 1091.87 C670.72 1094.48 669.59 1094.96 666.81 1096.06 C665.61 1096.55 665.61 1096.55 664.39 1097.05 C663.6 1097.36 662.81 1097.68 662 1098 C660.71 1098.58 659.42 1099.16 658.12 1099.75 C655 1101 655 1101 652 1101 C651.67 1101.99 651.34 1102.98 651 1104 C649 1105.1 649 1105.1 646.56 1106.06 C643.75 1107.19 642.16 1107.84 640 1110 C637.62 1110.63 637.62 1110.63 634.88 1111.12 C633.96 1111.29 633.05 1111.46 632.12 1111.63 C631.42 1111.75 630.72 1111.88 630 1112 C629.67 1112.99 629.34 1113.98 629 1115 C626.79 1116.1 626.79 1116.1 624.06 1117.06 C620.16 1118.43 620.16 1118.43 617 1121 C615.01 1121.57 613.01 1121.95 610.97 1122.34 C608.63 1123.12 607.72 1124.27 606 1126 C603.88 1126.84 603.88 1126.84 601.56 1127.5 C598.1 1128.57 595.88 1129.8 593 1132 C590.67 1132.67 588.33 1133.33 586 1134 C585.38 1134.49 584.75 1134.98 584.11 1135.49 C581.63 1137.26 579.74 1137.68 576.75 1138.19 C575.86 1138.35 574.97 1138.5 574.05 1138.67 C573.37 1138.78 572.7 1138.89 572 1139 C572 1139.66 572 1140.32 572 1141 C571.25 1141.25 570.5 1141.51 569.73 1141.77 C568.26 1142.29 568.26 1142.29 566.75 1142.81 C565.29 1143.32 565.29 1143.32 563.8 1143.83 C561 1144.86 561 1144.86 558.94 1146.59 C556.62 1148.28 555.08 1148.48 552.25 1148.69 C551.45 1148.75 550.65 1148.82 549.83 1148.89 C549.22 1148.92 548.62 1148.96 548 1149 C548 1149.66 548 1150.32 548 1151 C546.78 1151.45 545.57 1151.91 544.31 1152.38 C538.11 1154.69 538.11 1154.69 532.12 1157.5 C529 1159 529 1159 525.44 1160 C522.05 1160.8 522.05 1160.8 519.69 1162.56 C515.66 1164.72 511.51 1164.75 507 1165 C506.67 1165.99 506.34 1166.98 506 1168 C503.64 1168.84 503.64 1168.84 500.69 1169.5 C496.55 1170.42 496.55 1170.42 492.96 1172.53 C490 1174.75 486.93 1174.86 483.34 1175.38 C480.66 1176.09 479.89 1177.05 478 1179 C475.88 1179.73 475.88 1179.73 473.56 1180.19 C472.8 1180.35 472.04 1180.5 471.25 1180.67 C469 1181 469 1181 465 1181 C464.67 1181.99 464.34 1182.98 464 1184 C461.13 1184.95 461.13 1184.95 457.56 1185.69 C456.39 1185.94 455.21 1186.19 454 1186.45 C451 1187 451 1187 449 1187 C449 1187.66 449 1188.32 449 1189 C444.9 1190.92 440.84 1191.64 436.4 1192.34 C433.93 1192.86 433.93 1192.86 432.03 1194.5 C429.52 1196.35 427.63 1196.59 424.56 1197 C420.27 1197.57 417.68 1198.76 414 1201 C411.13 1201.84 411.13 1201.84 408.12 1202.5 C404.64 1203.31 401.67 1204.14 398.38 1205.56 C395.42 1206.82 393.06 1207.44 389.94 1208 C386.89 1208.55 384.86 1209.07 382.06 1210.5 C378.31 1212.34 374.8 1212.81 370.68 1213.38 C367.93 1213.86 367.93 1213.86 365.61 1215.5 C361.41 1217.92 356.93 1217.89 352.18 1218.38 C348.71 1219.06 348.33 1219.62 346 1222 C343.04 1222.63 343.04 1222.63 339.62 1223 C334.85 1223.53 332.07 1224.53 328 1227 C324.84 1227.73 324.84 1227.73 321.5 1228.19 C320.4 1228.35 319.29 1228.5 318.16 1228.67 C315.4 1228.96 312.76 1229.07 310 1229 C310 1229.66 310 1230.32 310 1231 C305.48 1233.72 300.56 1233.77 295.41 1234.34 C292.02 1234.79 292.02 1234.79 289.54 1236.51 C286.24 1238.45 283.1 1238.64 279.38 1238.94 C273.38 1239.54 268.39 1240.76 262.8 1243.06 C258.36 1244.55 253.81 1244.94 249.16 1245.41 C246 1245.8 246 1245.8 243.64 1247.5 C239.89 1249.63 236.31 1249.69 232.06 1250 C226.2 1250.42 222.3 1251.31 217 1254 C214.24 1254.42 211.59 1254.73 208.81 1254.94 C203.81 1255.41 199.46 1255.96 194.81 1258 C188.41 1260.69 181.65 1260.84 174.79 1261.23 C169.21 1261.58 169.21 1261.58 164.01 1263.5 C159.53 1265.73 155.07 1265.71 150.12 1266 C142.45 1266.35 142.45 1266.35 135.14 1268.5 C129.55 1270.85 123.55 1270.71 117.56 1271 C107.14 1271.45 107.14 1271.45 97.18 1274.28 C91.8 1276.06 86.14 1276.15 80.54 1276.32 C79.52 1276.35 79.52 1276.35 78.48 1276.38 C76.34 1276.44 74.2 1276.5 72.06 1276.56 C70.6 1276.61 69.14 1276.65 67.68 1276.69 C64.12 1276.8 60.56 1276.9 57 1277 C57 1277.99 57 1278.98 57 1280 C-1.74 1280 -60.48 1280 -121 1280 C-121 1279.01 -121 1278.02 -121 1277 C-121.55 1276.99 -122.11 1276.98 -122.68 1276.97 C-141.26 1276.58 -141.26 1276.58 -148.5 1272.98 C-153.01 1271.22 -157.89 1271.03 -162.68 1270.59 C-166.18 1269.97 -167.28 1269.12 -170 1267 C-173.38 1266.11 -176.76 1265.49 -180.2 1264.84 C-181.12 1264.57 -182.05 1264.29 -183 1264 C-183.33 1263.01 -183.66 1262.02 -184 1261 C-185.22 1260.9 -186.43 1260.79 -187.69 1260.69 C-192.35 1260.08 -195.14 1258.42 -198.87 1255.57 C-199.55 1255.05 -200.23 1254.54 -200.94 1254 C-201.62 1253.48 -202.3 1252.96 -203.01 1252.42 C-205.53 1250.63 -208.23 1249.35 -211 1248 C-212.02 1247.02 -213.02 1246.02 -214 1245 C-214.82 1244.51 -215.65 1244.01 -216.5 1243.5 C-218.79 1242.13 -220.21 1240.94 -222 1239 C-223.18 1237.82 -223.18 1237.82 -224.38 1236.62 C-225.24 1235.76 -226.11 1234.89 -227 1234 C-227.93 1233.11 -228.86 1232.23 -229.81 1231.31 C-232 1229 -232 1229 -232 1227 C-232.62 1226.77 -233.24 1226.55 -233.88 1226.31 C-236.61 1224.62 -237.05 1223.01 -238 1220 C-238.66 1220 -239.32 1220 -240 1220 C-240 1219.34 -240 1218.68 -240 1218 C-240.66 1218 -241.32 1218 -242 1218 C-242.08 1217.22 -242.17 1216.43 -242.25 1215.62 C-242.62 1214.33 -242.62 1214.33 -243 1213 C-244.32 1212.32 -245.66 1211.65 -247 1211 C-249.9 1207.2 -251.99 1203.16 -253.97 1198.83 C-255.09 1196.84 -256.39 1195.61 -258 1194 C-259.06 1192.4 -260.08 1190.77 -261.06 1189.12 C-261.57 1188.28 -262.08 1187.44 -262.6 1186.57 C-263.95 1184.1 -264.97 1181.62 -266 1179 C-266.47 1178.38 -266.95 1177.76 -267.44 1177.12 C-269.51 1174.3 -270.63 1171.21 -272 1168 C-272.66 1167.34 -273.32 1166.68 -274 1166 C-274.75 1164.05 -274.75 1164.05 -275.44 1161.75 C-276.33 1158.91 -277.24 1156.54 -278.62 1153.88 C-280.21 1150.57 -280.64 1147.63 -281 1144 C-281.66 1144 -282.32 1144 -283 1144 C-284.94 1140.46 -285.64 1137.17 -286.34 1133.22 C-286.88 1130.91 -286.88 1130.91 -288.5 1129.03 C-290.71 1126.04 -290.85 1123.05 -291.38 1119.44 C-291.84 1116.94 -291.84 1116.94 -293.5 1115.06 C-295.95 1111.7 -295.89 1107.92 -296.38 1103.88 C-296.79 1101 -296.79 1101 -298.47 1099.09 C-300.66 1096.1 -300.89 1093.2 -301.5 1089.56 C-302.33 1084.28 -302.33 1084.28 -304.53 1079.49 C-306.47 1076.2 -306.63 1073.35 -307 1069.56 C-307.52 1064.24 -308.62 1060.74 -311 1056 C-311.68 1053.26 -312.09 1050.48 -312.5 1047.69 C-313.17 1043.15 -313.96 1038.91 -315.53 1034.59 C-317.51 1028.94 -317.77 1023.3 -318.17 1017.37 C-318.5 1013.32 -318.92 1009.83 -320.5 1006.06 C-322.51 1001.2 -322.69 996.33 -323 991.12 C-323.34 985.59 -323.72 980.46 -325.5 975.17 C-327.53 968.93 -327.69 962.65 -328 956.12 C-328.39 948.02 -329.17 940.57 -331.3 932.73 C-333.21 925.25 -333.25 917.43 -333.56 909.75 C-333.63 908.24 -333.63 908.24 -333.69 906.7 C-333.98 899.46 -334.13 892.24 -334 885 C-334.99 885 -335.98 885 -337 885 C-337 812.4 -337 739.8 -337 665 C-336.01 665 -335.02 665 -334 665 C-334.01 664.07 -334.02 663.15 -334.04 662.2 C-334.19 643.81 -333.96 625.66 -330.51 607.56 C-328.65 597.23 -328.18 586.86 -327.77 576.39 C-327.49 569.73 -326.87 563.82 -324.7 557.5 C-323.28 552.42 -323.22 547.12 -322.94 541.88 C-322.52 534.67 -322.03 527.94 -320 521 C-318.47 515.4 -317.86 510.05 -317.62 504.25 C-317.4 499.11 -316.8 494.76 -315.06 489.88 C-312.63 482.92 -312.19 475.99 -311.77 468.69 C-311.42 463.31 -310.54 459.82 -308 455 C-307.58 452.28 -307.27 449.67 -307.06 446.94 C-306.43 440.35 -305.08 434.55 -302.94 428.27 C-301.53 423.38 -301.07 418.46 -300.59 413.41 C-300 410 -300 410 -298.5 407.03 C-296.2 402.39 -296.12 397.66 -295.62 392.56 C-294.99 388.92 -293.87 387.11 -292 384 C-291.36 380.5 -291.36 380.5 -291.06 376.75 C-290.49 371.38 -289.41 367.06 -286.94 362.25 C-285.39 358.55 -285.06 354.66 -284.5 350.71 C-283.9 347.44 -282.48 344.97 -281 342 C-280.44 338.97 -280 335.96 -279.62 332.9 C-279 330 -279 330 -277.5 327.51 C-275.75 324.59 -275.38 322.3 -274.94 318.94 C-274.44 315.2 -273.9 312.28 -272 309 C-271.34 309 -270.68 309 -270 309 C-269.97 308.29 -269.95 307.57 -269.92 306.84 C-269.6 301.39 -269.17 297.6 -266.05 292.96 C-264.16 289.42 -263.54 285.47 -262.71 281.57 C-262 279 -262 279 -260 277 C-259.16 274.04 -258.53 271.05 -257.88 268.04 C-256.98 264.93 -255.7 262.73 -254 260 C-253.43 258.48 -252.91 256.93 -252.44 255.38 C-251.54 252.4 -250.76 250.65 -249 248 C-248.48 246.6 -248 245.18 -247.56 243.75 C-246.27 239.72 -244.7 235.89 -243 232 C-241.97 229.34 -240.98 226.67 -240 224 C-239.34 224 -238.68 224 -238 224 C-237.89 223.31 -237.78 222.63 -237.67 221.92 C-237.43 220.57 -237.43 220.57 -237.19 219.19 C-236.96 217.85 -236.96 217.85 -236.73 216.48 C-235.92 213.73 -235.01 212.94 -233 211 C-232.12 208.68 -231.49 206.35 -230.84 203.96 C-230.57 203.31 -230.29 202.67 -230 202 C-229.01 201.67 -228.02 201.34 -227 201 C-226.88 199.74 -226.75 198.48 -226.62 197.19 C-226.3 193.9 -225.93 192.9 -224 190 C-223.34 190 -222.68 190 -222 190 C-221.92 188.97 -221.83 187.94 -221.75 186.88 C-220.92 182.61 -219.49 180.51 -217 177 C-216.45 175.74 -215.93 174.47 -215.44 173.19 C-214.96 172.14 -214.49 171.08 -214 170 C-213.01 169.67 -212.02 169.34 -211 169 C-210.88 167.91 -210.75 166.81 -210.62 165.69 C-210 162 -210 162 -208 159 C-207.34 159 -206.68 159 -206 159 C-205.01 156.03 -204.02 153.06 -203 150 C-202.34 150 -201.68 150 -201 150 C-200.73 148.91 -200.46 147.81 -200.19 146.69 C-199.04 143.11 -198.58 142.37 -196 140 C-195.5 139.01 -195.01 138.02 -194.5 137 C-193.15 134.29 -192.07 133.07 -190 131 C-189.67 130.18 -189.34 129.35 -189 128.5 C-187.95 125.87 -187 124.93 -185 123 C-184.32 121.95 -183.64 120.9 -182.94 119.81 C-182.3 118.88 -181.66 117.96 -181 117 C-180.34 117 -179.68 117 -179 117 C-178.73 116.03 -178.46 115.06 -178.19 114.06 C-177.8 113.05 -177.4 112.04 -177 111 C-176.01 110.67 -175.02 110.34 -174 110 C-173.73 109.15 -173.46 108.31 -173.19 107.44 C-170.87 100.74 -166 95.88 -161 91 C-159.45 89.24 -157.94 87.45 -156.43 85.65 C-155.02 84.02 -153.54 82.51 -152 81 C-151.48 80.44 -150.97 79.89 -150.44 79.31 C-149 78 -149 78 -147 78 C-146.34 76.35 -145.68 74.7 -145 73 C-144.01 73 -143.02 73 -142 73 C-141.75 72.2 -141.5 71.39 -141.25 70.56 C-140 68 -140 68 -137.88 67.19 C-137.26 67.13 -136.64 67.06 -136 67 C-135.67 65.68 -135.34 64.36 -135 63 C-133.68 62.67 -132.36 62.34 -131 62 C-130.92 61.38 -130.84 60.76 -130.75 60.12 C-130 58 -130 58 -128.25 57.06 C-127.14 56.54 -127.14 56.54 -126 56 C-124.86 54.89 -123.72 53.78 -122.61 52.63 C-120.49 50.48 -118.29 48.42 -116.06 46.38 C-115.25 45.62 -114.44 44.86 -113.6 44.09 C-110.86 41.89 -108.16 40.52 -105 39 C-103.27 37.85 -101.56 36.66 -99.88 35.44 C-92.37 30 -92.37 30 -88 30 C-87.76 29.38 -87.51 28.77 -87.26 28.13 C-85.73 25.54 -84.63 25.05 -81.88 23.94 C-81.08 23.61 -80.28 23.29 -79.45 22.95 C-78.64 22.64 -77.83 22.32 -77 22 C-76.25 21.7 -75.5 21.39 -74.73 21.08 C-71.69 19.88 -69.29 19 -66 19 C-65.67 18.01 -65.34 17.02 -65 16 C-62.42 15.16 -62.42 15.16 -59.19 14.5 C-54.82 13.67 -54.82 13.67 -51.05 11.5 C-48.2 9.42 -45.51 9.08 -42.06 8.44 C-37.16 7.52 -37.16 7.52 -32.43 5.97 C-27.84 4.14 -23.06 3.87 -18.16 3.68 C-16.57 3.62 -16.57 3.62 -14.94 3.56 C-13.3 3.5 -13.3 3.5 -11.62 3.44 C-10.51 3.39 -9.39 3.35 -8.24 3.31 C-5.49 3.2 -2.75 3.1 0 3 C0 2.01 0 1.02 0 0 Z " fill="#DFB3B5" transform="translate(337,0)"/>
</svg>
